<svg xmlns="http://www.w3.org/2000/svg" width="1024" height="1024" viewBox="0 0 1024 1024">
<g>
<path d="M 580.37 928.96 C575.10,930.94 572.98,931.00 512.71,930.90 C455.02,930.82 450.15,930.68 445.69,928.98 C443.05,927.98 439.76,926.42 438.38,925.51 C435.31,923.50 430.32,915.81 428.99,911.03 C428.42,908.98 428.01,889.55 428.00,864.50 L 428.00 821.50 L 421.75 819.66 C408.95,815.90 380.03,804.33 366.00,797.35 L 351.50 790.14 L 324.00 817.47 C308.88,832.51 294.99,845.56 293.15,846.48 C288.39,848.86 281.02,850.98 277.50,850.98 C273.74,850.98 266.46,848.80 261.38,846.16 C259.18,845.01 240.78,827.35 218.84,805.32 C175.02,761.32 174.66,760.85 174.57,748.00 C174.48,734.69 176.00,732.48 206.05,702.45 C220.32,688.19 232.00,675.94 232.00,675.24 C232.00,674.54 229.79,669.55 227.08,664.16 C219.75,649.56 211.57,629.61 206.93,615.02 L 202.81 602.08 L 158.16 601.79 C120.27,601.54 112.75,601.73 107.69,598.30 C106.05,597.20 104.67,595.71 102.62,593.71 C99.78,590.96 97.53,587.49 96.14,583.71 C94.04,578.04 94.00,576.74 94.00,517.37 C94.00,450.40 94.03,450.05 100.34,441.78 C102.09,439.49 105.75,436.46 108.48,435.05 L 113.44 432.50 L 158.42 432.00 L 203.41 431.50 L 208.01 417.98 C213.74,401.18 217.32,392.51 226.30,373.69 L 233.36 358.88 L 205.78 331.19 C188.20,313.55 177.34,301.87 175.85,299.00 C173.91,295.26 173.51,292.97 173.51,285.50 C173.51,285.28 173.51,285.07 173.51,284.86 C173.50,281.92 173.50,279.61 173.91,277.37 C175.44,269.06 182.70,261.79 217.00,226.87 C251.87,191.36 256.11,187.38 262.00,184.58 C267.68,181.89 269.58,181.50 277.00,181.50 C291.56,181.50 292.71,182.31 325.03,215.26 L 352.69 243.47 L 369.59 235.37 C386.37,227.34 402.66,220.72 419.00,215.31 L 427.50 212.50 L 428.00 163.50 C428.49,115.62 428.55,114.41 430.67,110.45 C433.83,104.54 438.65,100.28 444.73,98.00 C449.87,96.08 452.51,96.00 513.36,96.00 L 517.77 96.00 C572.45,96.00 580.70,96.00 586.38,99.82 C587.54,100.59 588.60,101.53 589.92,102.66 C592.20,104.62 595.07,108.08 596.28,110.36 C598.50,114.50 598.50,114.51 598.13,163.24 C597.82,203.86 597.99,212.04 599.13,212.36 C616.17,217.13 639.53,226.28 658.50,235.61 L 673.50 242.99 L 701.00 215.04 C733.38,182.12 735.66,180.50 749.45,180.50 C756.52,180.50 758.34,180.90 764.01,183.70 C769.78,186.54 774.78,191.25 809.12,226.23 C833.47,251.04 848.60,267.22 850.08,270.03 C852.02,273.73 852.43,276.05 852.46,283.50 C852.49,291.37 852.14,293.29 849.60,298.79 C848.00,302.24 846.19,305.39 845.58,305.79 C844.97,306.18 833.11,318.02 819.22,332.10 L 793.97 357.70 L 802.41 375.10 C810.81,392.42 818.44,411.96 821.79,424.78 L 823.55 431.50 L 869.03 432.00 C904.85,432.39 915.03,432.79 917.00,433.87 C922.09,436.65 928.02,443.43 930.01,448.76 C931.92,453.86 932.00,456.62 932.00,515.92 C932.00,570.68 931.81,578.36 930.35,582.88 C928.33,589.14 923.37,595.11 917.17,598.76 L 912.50 601.50 L 868.00 601.79 L 823.50 602.08 L 818.65 616.79 C813.38,632.75 808.50,644.72 799.51,663.72 L 793.73 675.94 L 818.97 701.67 C844.57,727.76 846.52,730.23 849.89,741.07 C851.55,746.41 851.26,750.04 848.53,758.10 C848.09,759.40 847.80,760.42 847.42,761.40 C845.36,766.68 840.85,771.02 798.01,814.32 C781.51,830.99 766.79,845.03 764.62,846.16 C759.51,848.81 752.24,850.98 748.50,850.96 C745.45,850.95 736.06,848.13 731.83,845.96 C730.55,845.30 717.12,832.45 702.00,817.41 L 674.50 790.05 L 659.57 797.48 C642.63,805.90 618.33,815.79 606.24,819.18 L 598.08 821.46 L 597.79 866.48 C597.54,904.61 597.74,912.14 594.35,917.33 C593.26,919.00 591.79,920.44 589.82,922.58 C587.21,925.42 583.92,927.63 580.37,928.96 ZM 471.98 844.76 L 472.00 887.02 L 554.50 886.50 L 555.00 843.50 C555.49,801.14 555.53,800.44 557.78,796.24 C561.05,790.10 566.58,786.51 575.77,784.53 C600.94,779.13 632.70,766.14 660.86,749.72 C673.18,742.55 677.55,741.71 686.02,744.89 C690.94,746.75 694.68,750.08 720.17,775.35 L 748.79 803.73 L 776.59 775.91 L 804.40 748.08 L 792.97 736.29 C786.68,729.81 774.32,717.17 765.51,708.21 C752.05,694.51 749.21,691.09 747.65,686.71 C744.71,678.43 745.77,672.74 752.33,661.70 C766.49,637.84 780.28,604.58 785.54,581.58 C788.10,570.38 791.24,565.56 798.50,561.65 C802.37,559.57 803.90,559.48 845.00,559.00 L 887.50 558.50 L 888.02 475.00 L 847.38 475.00 C821.06,475.00 805.46,474.62 803.11,473.92 C793.40,471.00 787.86,464.09 785.32,451.70 C783.54,443.03 777.19,423.21 772.36,411.22 C767.98,400.36 757.07,378.65 751.79,370.28 C746.79,362.37 745.82,355.24 748.65,347.31 C750.26,342.78 754.07,338.45 778.41,313.49 L 806.32 284.86 L 796.77 275.18 C791.51,269.86 783.22,261.45 778.33,256.50 C773.45,251.55 764.84,243.03 759.19,237.57 L 748.94 227.64 L 718.72 257.73 C691.85,284.47 688.00,287.95 684.01,289.01 C676.68,290.96 671.19,289.86 662.09,284.61 C635.02,269.00 600.24,254.86 575.67,249.48 C566.40,247.45 560.91,243.71 557.37,237.02 L 555.00 232.53 L 555.00 140.00 L 472.00 140.00 L 472.00 186.94 C472.00,227.63 472.00,234.77 468.62,239.52 C467.88,240.56 466.97,241.49 465.86,242.64 C462.08,246.55 458.04,248.26 446.04,251.04 C434.51,253.71 414.15,260.61 400.00,266.64 C388.23,271.65 364.50,283.83 359.97,287.18 C355.93,290.17 346.58,290.84 340.77,288.56 C337.50,287.27 329.57,279.96 306.78,257.23 L 277.06 227.57 L 267.40 237.04 C262.08,242.24 249.17,255.16 238.71,265.73 L 219.68 284.97 L 247.27 312.89 C262.44,328.24 275.49,342.09 276.28,343.65 C277.06,345.22 278.23,348.63 278.86,351.23 C280.51,357.97 279.03,363.28 272.00,375.87 C259.74,397.80 246.12,432.61 239.94,457.84 C238.44,463.95 232.23,470.40 225.37,472.96 C220.22,474.89 217.72,475.00 178.96,475.00 L 138.00 475.00 L 138.00 559.00 L 221.94 559.00 L 227.22 561.36 C235.64,565.14 238.50,569.50 241.06,582.49 C242.67,590.65 251.21,616.12 255.95,626.90 C261.29,639.01 267.00,650.25 272.99,660.39 C279.31,671.09 280.67,677.18 278.45,684.82 C276.98,689.88 275.06,692.10 248.92,718.85 L 220.97 747.46 L 277.49 804.00 L 305.99 775.55 C332.25,749.35 334.96,746.93 340.37,744.94 C349.30,741.64 353.46,742.44 366.01,749.88 C391.80,765.17 420.77,777.16 448.50,784.01 C462.74,787.53 466.19,789.79 469.92,798.02 C471.86,802.29 471.96,804.43 471.98,844.76 ZM 538.82 690.02 C527.10,691.85 508.06,692.44 497.00,691.33 C474.07,689.01 447.54,680.97 429.16,670.78 C384.27,645.88 353.06,605.53 341.11,556.93 C330.23,512.71 338.11,462.35 361.91,424.04 C385.50,386.06 420.90,359.31 463.91,346.97 C490.34,339.39 521.89,338.27 549.71,343.94 C592.48,352.66 631.27,378.08 657.67,414.70 C665.41,425.43 676.92,448.19 680.99,460.82 C690.09,489.09 692.18,523.25 686.40,549.32 C678.02,587.09 663.80,613.37 637.58,639.55 C608.86,668.22 578.29,683.84 538.82,690.02 ZM 491.50 648.47 C501.73,650.36 530.33,649.82 540.40,647.53 C588.15,636.70 624.87,604.31 640.75,559.00 C645.97,544.09 647.47,534.39 647.48,515.50 C647.49,501.32 647.11,496.77 645.17,488.08 C639.31,461.88 628.49,441.66 610.32,422.92 C599.40,411.66 588.83,403.79 575.59,397.04 C527.55,372.59 468.44,378.71 426.26,412.52 C403.77,430.54 387.05,458.48 380.44,489.08 C378.02,500.27 377.48,523.39 379.35,535.57 C384.34,568.08 402.17,599.30 427.31,619.55 C446.29,634.84 466.11,643.77 491.50,648.47 Z" fill="rgb(0,0,0)"/>
<path d="M 0.00 512.00 L 0.00 0.00 L 512.00 0.00 L 1024.00 0.00 L 1024.00 512.00 L 1024.00 1024.00 L 512.00 1024.00 L 0.00 1024.00 L 0.00 512.00 ZM 580.37 928.96 C583.92,927.63 587.21,925.42 589.82,922.58 C597.91,913.81 597.47,916.92 597.79,866.48 L 598.08 821.46 L 606.24 819.18 C618.33,815.79 642.63,805.90 659.57,797.48 L 674.50 790.05 L 702.00 817.41 C717.12,832.45 730.55,845.30 731.83,845.96 C736.06,848.13 745.45,850.95 748.50,850.96 C752.24,850.98 759.51,848.81 764.62,846.16 C766.79,845.03 781.51,830.99 798.01,814.32 C848.79,763.00 845.72,766.42 848.53,758.10 C851.26,750.04 851.55,746.41 849.89,741.07 C846.52,730.23 844.57,727.76 818.97,701.67 L 793.73 675.94 L 799.51 663.72 C808.50,644.72 813.38,632.75 818.65,616.79 L 823.50 602.08 L 868.00 601.79 L 912.50 601.50 L 917.17 598.76 C923.37,595.11 928.33,589.14 930.35,582.88 C931.81,578.36 932.00,570.68 932.00,515.92 C932.00,456.62 931.92,453.86 930.01,448.76 C928.02,443.43 922.09,436.65 917.00,433.87 C915.03,432.79 904.85,432.39 869.03,432.00 L 823.55 431.50 L 821.79 424.78 C818.44,411.96 810.81,392.42 802.41,375.10 L 793.97 357.70 L 819.22 332.10 C833.11,318.02 844.97,306.18 845.58,305.79 C846.19,305.39 848.00,302.24 849.60,298.79 C852.14,293.29 852.49,291.37 852.46,283.50 C852.43,276.05 852.02,273.73 850.08,270.03 C848.60,267.22 833.47,251.04 809.12,226.23 C774.78,191.25 769.78,186.54 764.01,183.70 C758.34,180.90 756.52,180.50 749.45,180.50 C735.66,180.50 733.38,182.12 701.00,215.04 L 673.50 242.99 L 658.50 235.61 C639.53,226.28 616.17,217.13 599.13,212.36 C597.99,212.04 597.82,203.86 598.13,163.24 C598.50,114.51 598.50,114.50 596.28,110.36 C595.07,108.08 592.20,104.62 589.92,102.66 C581.96,95.85 583.67,96.00 513.36,96.00 C452.51,96.00 449.87,96.08 444.73,98.00 C438.65,100.28 433.83,104.54 430.67,110.45 C428.55,114.41 428.49,115.62 428.00,163.50 L 427.50 212.50 L 419.00 215.31 C402.66,220.72 386.37,227.34 369.59,235.37 L 352.69 243.47 L 325.03 215.26 C292.71,182.31 291.56,181.50 277.00,181.50 C269.58,181.50 267.68,181.89 262.00,184.58 C256.11,187.38 251.87,191.36 217.00,226.87 C172.83,271.84 173.50,270.94 173.51,285.50 C173.51,292.97 173.91,295.26 175.85,299.00 C177.34,301.87 188.20,313.55 205.78,331.19 L 233.36 358.88 L 226.30 373.69 C217.32,392.51 213.74,401.18 208.01,417.98 L 203.41 431.50 L 158.42 432.00 L 113.44 432.50 L 108.48 435.05 C105.75,436.46 102.09,439.49 100.34,441.78 C94.03,450.05 94.00,450.40 94.00,517.37 C94.00,576.74 94.04,578.04 96.14,583.71 C97.53,587.49 99.78,590.96 102.62,593.71 C111.06,601.90 108.04,601.46 158.16,601.79 L 202.81 602.08 L 206.93 615.02 C211.57,629.61 219.75,649.56 227.08,664.16 C229.79,669.55 232.00,674.54 232.00,675.24 C232.00,675.94 220.32,688.19 206.05,702.45 C176.00,732.48 174.48,734.69 174.57,748.00 C174.66,760.85 175.02,761.32 218.84,805.32 C240.78,827.35 259.18,845.01 261.38,846.16 C266.46,848.80 273.74,850.98 277.50,850.98 C281.02,850.98 288.39,848.86 293.15,846.48 C294.99,845.56 308.88,832.51 324.00,817.47 L 351.50 790.14 L 366.00 797.35 C380.03,804.33 408.95,815.90 421.75,819.66 L 428.00 821.50 L 428.00 864.50 C428.01,889.55 428.42,908.98 428.99,911.03 C430.32,915.81 435.31,923.50 438.38,925.51 C439.76,926.42 443.05,927.98 445.69,928.98 C450.15,930.68 455.02,930.82 512.71,930.90 C572.98,931.00 575.10,930.94 580.37,928.96 ZM 471.98 844.76 C471.96,804.43 471.86,802.29 469.92,798.02 C466.19,789.79 462.74,787.53 448.50,784.01 C420.77,777.16 391.80,765.17 366.01,749.88 C353.46,742.44 349.30,741.64 340.37,744.94 C334.96,746.93 332.25,749.35 305.99,775.55 L 277.49 804.00 L 249.23 775.73 L 220.97 747.46 L 248.92 718.85 C275.06,692.10 276.98,689.88 278.45,684.82 C280.67,677.18 279.31,671.09 272.99,660.39 C267.00,650.25 261.29,639.01 255.95,626.90 C251.21,616.12 242.67,590.65 241.06,582.49 C238.50,569.50 235.64,565.14 227.22,561.36 L 221.94 559.00 L 179.97 559.00 L 138.00 559.00 L 138.00 517.00 L 138.00 475.00 L 178.96 475.00 C217.72,475.00 220.22,474.89 225.37,472.96 C232.23,470.40 238.44,463.95 239.94,457.84 C246.12,432.61 259.74,397.80 272.00,375.87 C279.03,363.28 280.51,357.97 278.86,351.23 C278.23,348.63 277.06,345.22 276.28,343.65 C275.49,342.09 262.44,328.24 247.27,312.89 L 219.68 284.97 L 238.71 265.73 C249.17,255.16 262.08,242.24 267.40,237.04 L 277.06 227.57 L 306.78 257.23 C329.57,279.96 337.50,287.27 340.77,288.56 C346.58,290.84 355.93,290.17 359.97,287.18 C364.50,283.83 388.23,271.65 400.00,266.64 C414.15,260.61 434.51,253.71 446.04,251.04 C458.04,248.26 462.08,246.55 465.86,242.64 C472.04,236.26 472.00,236.60 472.00,186.03 L 472.00 140.00 L 513.50 140.00 L 555.00 140.00 L 555.00 186.27 L 555.00 232.53 L 557.37 237.02 C560.91,243.71 566.40,247.45 575.67,249.48 C600.24,254.86 635.02,269.00 662.09,284.61 C671.19,289.86 676.68,290.96 684.01,289.01 C688.00,287.95 691.85,284.47 718.72,257.73 L 748.94 227.64 L 759.19 237.57 C764.84,243.03 773.45,251.55 778.33,256.50 C783.22,261.45 791.51,269.86 796.77,275.18 L 806.32 284.86 L 778.41 313.49 C754.07,338.45 750.26,342.78 748.65,347.31 C745.82,355.24 746.79,362.37 751.79,370.28 C757.07,378.65 767.98,400.36 772.36,411.22 C777.19,423.21 783.54,443.03 785.32,451.70 C787.86,464.09 793.40,471.00 803.11,473.92 C805.46,474.62 821.06,475.00 847.38,475.00 L 888.02 475.00 L 887.76 516.75 L 887.50 558.50 L 845.00 559.00 C803.90,559.48 802.37,559.57 798.50,561.65 C791.24,565.56 788.10,570.38 785.54,581.58 C780.28,604.58 766.49,637.84 752.33,661.70 C745.77,672.74 744.71,678.43 747.65,686.71 C749.21,691.09 752.05,694.51 765.51,708.21 C774.32,717.17 786.68,729.81 792.97,736.29 L 804.40 748.08 L 776.59 775.91 L 748.79 803.73 L 720.17 775.35 C694.68,750.08 690.94,746.75 686.02,744.89 C677.55,741.71 673.18,742.55 660.86,749.72 C632.70,766.14 600.94,779.13 575.77,784.53 C566.58,786.51 561.05,790.10 557.78,796.24 C555.53,800.44 555.49,801.14 555.00,843.50 L 554.50 886.50 L 513.25 886.76 L 472.00 887.02 L 471.98 844.76 ZM 538.82 690.02 C578.29,683.84 608.86,668.22 637.58,639.55 C663.80,613.37 678.02,587.09 686.40,549.32 C692.18,523.25 690.09,489.09 680.99,460.82 C676.92,448.19 665.41,425.43 657.67,414.70 C631.27,378.08 592.48,352.66 549.71,343.94 C521.89,338.27 490.34,339.39 463.91,346.97 C420.90,359.31 385.50,386.06 361.91,424.04 C338.11,462.35 330.23,512.71 341.11,556.93 C353.06,605.53 384.27,645.88 429.16,670.78 C447.54,680.97 474.07,689.01 497.00,691.33 C508.06,692.44 527.10,691.85 538.82,690.02 ZM 491.50 648.47 C466.11,643.77 446.29,634.84 427.31,619.55 C402.17,599.30 384.34,568.08 379.35,535.57 C377.48,523.39 378.02,500.27 380.44,489.08 C387.05,458.48 403.77,430.54 426.26,412.52 C468.44,378.71 527.55,372.59 575.59,397.04 C588.83,403.79 599.40,411.66 610.32,422.92 C628.49,441.66 639.31,461.88 645.17,488.08 C647.11,496.77 647.49,501.32 647.48,515.50 C647.47,534.39 645.97,544.09 640.75,559.00 C624.87,604.31 588.15,636.70 540.40,647.53 C530.33,649.82 501.73,650.36 491.50,648.47 Z" fill="rgb(253,253,253)"/>
</g>
</svg>